<svg id="visual" viewBox="0 0 900 600" width="900" height="600" xmlns="http://www.w3.org/2000/svg" xmlns:xlink="http://www.w3.org/1999/xlink" version="1.1"><rect x="0" y="0" width="900" height="600" fill="#fff"></rect><defs><linearGradient id="grad1_0" x1="33.3%" y1="100%" x2="100%" y2="0%"><stop offset="20%" stop-color="#ffffff" stop-opacity="1"></stop><stop offset="80%" stop-color="#ffffff" stop-opacity="1"></stop></linearGradient></defs><defs><linearGradient id="grad2_0" x1="0%" y1="100%" x2="66.7%" y2="0%"><stop offset="20%" stop-color="#ffffff" stop-opacity="1"></stop><stop offset="80%" stop-color="#ffffff" stop-opacity="1"></stop></linearGradient></defs><g transform="translate(900, 600)"><path d="M-486.7 0C-464.9 -62.6 -443.1 -125.1 -407.4 -168.8C-371.7 -212.4 -322.1 -237.1 -287.1 -287.1C-252.1 -337 -231.7 -412.2 -186.3 -449.7C-140.9 -487.2 -70.4 -487 0 -486.7L0 0Z" fill="#2c4755"></path></g><g transform="translate(0, 0)"><path d="M486.7 0C459.7 55.9 432.7 111.8 412.1 170.7C391.4 229.5 377 291.4 340.8 340.8C304.7 390.3 246.7 427.4 186.3 449.7C125.8 472 62.9 479.4 0 486.7L0 0Z" fill="#2c4755"></path></g></svg>