<?xml version="1.0" standalone="no"?><svg xmlns="http://www.w3.org/2000/svg" viewBox="0 0 1440 320"><path fill="#10cab7" fill-opacity="1" d="M0,192L30,181.3C60,171,120,149,180,122.7C240,96,300,64,360,53.3C420,43,480,53,540,69.3C600,85,660,107,720,128C780,149,840,171,900,186.7C960,203,1020,213,1080,218.7C1140,224,1200,224,1260,186.7C1320,149,1380,75,1410,37.3L1440,0L1440,320L1410,320C1380,320,1320,320,1260,320C1200,320,1140,320,1080,320C1020,320,960,320,900,320C840,320,780,320,720,320C660,320,600,320,540,320C480,320,420,320,360,320C300,320,240,320,180,320C120,320,60,320,30,320L0,320Z"></path></svg>